<svg xmlns="http://www.w3.org/2000/svg" xmlns:xlink="http://www.w3.org/1999/xlink" viewBox="0 0 1367 769"><defs><style>.cls-1{fill:url(#linear-gradient);}.cls-2{fill:url(#linear-gradient-2);}.cls-3{fill:url(#linear-gradient-3);}.cls-4{fill:url(#linear-gradient-4);}</style><linearGradient id="linear-gradient" x1="1176.11" y1="127.79" x2="85.33" y2="695.69" gradientUnits="userSpaceOnUse"><stop offset="0" stop-color="#2aa9ef"/><stop offset="1" stop-color="#3fffa6"/></linearGradient><linearGradient id="linear-gradient-2" x1="1118.24" y1="271.97" x2="123.59" y2="789.82" gradientUnits="userSpaceOnUse"><stop offset="0" stop-color="#2a87ef"/><stop offset="1" stop-color="#5153a6" stop-opacity="0.2"/></linearGradient><linearGradient id="linear-gradient-3" x1="1140.67" y1="381.74" x2="171.13" y2="886.52" xlink:href="#linear-gradient-2"/><linearGradient id="linear-gradient-4" x1="1162.95" y1="429.38" x2="194.14" y2="933.78" xlink:href="#linear-gradient-2"/></defs><title>bg</title><g id="Layer_2" data-name="Layer 2"><g id="Layer_1-2" data-name="Layer 1"><path class="cls-1" d="M1,0V768H1367V93s-141-70-718-4C515.79,104.24,1,0,1,0Z"/><path class="cls-2" d="M1,228.1S375,486,693,399c271-74.15,361.43-75.9,414-60,162,49,260,36,260,45V768H1Z"/><path class="cls-3" d="M1,471s380,102,698,15c271-74.15,342.43-84.9,395-69,162,49,272.2,32,272,41-1.18,52.24,0,176,1,310H1Z"/><path class="cls-4" d="M0,590s394,47,712-40c271-74.15,331.43-66.9,384-51,162,49,284,9,268-40-2.8-8.57,3,309,3,309L0,769Z"/></g></g></svg>