<svg xmlns="http://www.w3.org/2000/svg" xmlns:xlink="http://www.w3.org/1999/xlink" viewBox="0 0 522.89 530.98"><defs><style>.cls-1{fill-rule:evenodd;}.cls-2{opacity:0.17;}.cls-3{fill:blue;}</style><symbol id="Grime_Vector_Pack_01" data-name="Grime Vector Pack 01" viewBox="0 0 172.15 166.9"><path class="cls-1" d="M171.3,54.07c-3.06-1.55-5.42-.32-5.42,2.28C165.88,61.83,174.92,58.47,171.3,54.07ZM88.87.47c-.86-1-2.93-.15-4.07,0C84.83,2.22,88.89,2.39,88.87.47Zm3.62,2.71c0-.83-.79-.87-1.13-1.36.33-.2.72-.34.68-.91a5.18,5.18,0,0,0-2.94.45c.25.71,0,.51,0,1.36A3.58,3.58,0,0,0,92.49,3.18Zm2.26-1.13c1-.39,1.86.31,2.26-.45C96,1.83,94.85.48,94.3,1.6,94.55,1.65,94.65,1.85,94.75,2.05Zm-6.33.23a7.42,7.42,0,0,0-2.49,1.13c.49.42,1.66.15,2.49.23C88.24,2.85,88.84,2.68,88.42,2.28Zm42.51,9.5c.06-.52-.06-.85-.45-.91-.07.31-.32.43-.23.91Zm0,2.49c-.16.76.46.74.68,1.13.42-.43-.13-.41,0-1.13ZM100.18,30.77c.65,0,1.23,0,1.13-.68C100.78,30.17,100.34,30.32,100.18,30.77Zm38.89,3.39c-.14-1.44-1.24-1.93-2.26-2.49C137.82,32.74,137.25,34.1,139.07,34.16Zm3.17,5c-.44-.85-.68-1.89-1.58-2.26A3.25,3.25,0,0,0,142.23,39.14Zm.68,2.71c.57,0,.71-.35.9-.68-.78-.35-.49-1.77-1.58-1.81C142.31,40.79,142.88,40.72,142.91,41.85Zm-41.15,2.49h.68c.06-.59-.08-1-.68-.9Zm33.24.91c-1.62,1.31-1.88-.3-3.84-.23a1.6,1.6,0,0,1-.45.68c.62,2.46,2.87.51,5,.68-.2,1.4,1.85.56,2,1.58-1.12.52-.74,1.32-.68,2.49,1.24-.41.71.94,1.58.9.21-.62.86-.8,1.13-1.36-.3-.55-.84.25-.9-.22a1.93,1.93,0,0,0,.23-1.36c-1.22-1.55-2.09-3.27-4.07-4.52C134.58,44.29,135.18,44.46,135,45.24Zm6.56-.91c.11,1,.82.29,1.58.23C142.61,44.49,142.29,44.21,141.56,44.34Zm-14.47,4.52c-.06-.43.51-.41,1.13-.68,0-.27,0-.64-.23-.68-.24.65-.69.75-1.36.45C126.68,48.36,126.41,49.09,127.09,48.86Zm3.84.23c.16-.56.35-1.34-.23-1.58,0,.3-.4.21-.45.45.35.06.16.5,0,.68C130.7,48.57,130.7,48.94,130.93,49.09ZM135,50.9c.49-.47-.2-.73.22-1.13-.43-.1-.57-.49-1.13-.45.2.73-.59.47-.68.91.26,0,.25.36.23.68C134.7,50.93,134.49,49.69,135,50.9ZM35.29,58.81c-6.61,1.53-1.17,12.25,4.07,7.69C42.25,64,40.16,57.69,35.29,58.81Zm107.17,9c0-.18.19-.26.45-.23.16-.69-.23-.82-.23-1.36-.78,0-1.31.19-1.13,1.13C142.27,67.14,142.1,67.76,142.46,67.86ZM64,125.06c.31,1.24,1.84,2.37,2.71,3.39,1.9,2.22,3.26,3.78,5.65,5C82,138.22,93.49,130.56,94.53,121c.42-3.84-2.31-9.17-4.07-11.31-2.53-3.07-8.42-6.08-13.34-5.65-2.38.21-3.35,1.24-5.43,1.81-1.13.31-2.29.16-2.94.45a10.26,10.26,0,0,0-3.84,4.52c-.26.65-.13,1.63-.45,2.26-.44.85-1.58,1.43-1.81,2.26a10.92,10.92,0,0,0,.45,6.56c.16.53.76.91.9,1.36S63.87,124.54,64,125.06Zm88.86-13.79c.46.07.6.45.91.68a5.08,5.08,0,0,0,.45-1.36C153.71,110.77,153,110.72,152.86,111.27ZM18.33,115.57c.07.52-.65.25-.68.68.76.2,0,.51.45.9.7,0,.65-.71,1.58-.45.06-.52-.06-.85-.45-.9-.36.17-.34.72-.9.68C18.4,116.33,18.89,115.6,18.33,115.57ZM10,119.41c-.46.81-1.14,1.32-1.13,2C9.53,121.23,10.56,120.17,10,119.41Zm134.53,5.65c-.14-1.27-.5-.06-1.35-.23-.24.57.48,1.29.68.68C143.25,125.42,144,124.87,144.49,125.06Zm-90,4.75c.3,0,.21.4.45.45-.12-.45,1.25-.52.45-.91C55.34,129.75,54.71,129.15,54.51,129.81Zm92.25,2.71c-.73.11-2,1.82-.68,1.36C145.45,133.6,147.76,133.19,146.76,132.53Zm-1.36,3.17a4.85,4.85,0,0,0,2.49-1.81C146.87,134.3,145.82,134.68,145.4,135.69ZM137,137.5c-.34,0-.83.08-.9-.22,0-.14,0-.27-.23-.23-.39.46.17.44-.23.9C136.28,137.95,137,138.08,137,137.5Zm-93.15,3.62v.68c.52.06.85-.05.9-.45C44.48,141.27,44.35,141,43.88,141.12Zm17.86,6.33c-.14.82.47.89,1.13.9C62.79,147.75,62.28,147.59,61.74,147.45Zm73.93-7.69ZM162.81,92c-2.57-.06-3.85-3-5.2-5,.26-.34.94-.27.9-.9-.18-.19-.93,0-1.36-.45,0,.36,0,.78-.45.68a23.82,23.82,0,0,1-2.49-1.81c.4-.43.21-1.45.68-1.81-2-1.62.81-3.22.9-4.3,0-.3-.4-.21-.45-.45.84-.45,1.63.44,2-.45-.58-.39-.79.26-1.13-.23.44-1.13.28-3.24.9-4.52-.16.74.45.35.45,0-.58-.39-.79.26-1.13-.23,0-.57.35-.71.68-.9.09.25.9.86,1.13.23-.32-.74-.7-.37-1.13-.68.7.17.43-.62,1.13-.45.94.92.47,1.69,0,2.71,2.67.08.9-2.08,1.81-3.17-.71,0-.75.6-1.58.45.56-.59-.49-.84-.45-1.58.73-.7.91-2,1.13-3.17-3.46-9.73-9.73-16.65-15.38-24.2-.35,1.85.85,6.19-.45,9.27-.82-.11-1.14.75-2,1.13-.66-.82-1.14.42-1.58-.9-.23.3-.22.83-.45,1.13,1.69.27,2.24.54,3.85,0,.73,1.45-.53,2.9-1.36,4.07-.56,0-1.1,0-1.13-.45.21-.24.83-.07.68-.68-.91,0-1.74.07-2,.68a1.6,1.6,0,0,1,.68.45c-.4.36-.47,1-1.13,1.13-.65-.48-.67-1.6-1.58-1.81-.35.33-.2,1.16-.22,1.81-.8,0-1,.65-1.81.68-1.84-1-3.62-2.89-2.94-5.65-1.64-1.23-3,1.06-4.52-.23-.65-2-1.74-2.46-3.39-3.39.22,2.43,2,3.32,2.49,5a20.54,20.54,0,0,0,2,4.3c2,3.72,4.89,6.9,6.33,10.4.63,1.52.44,3.29,2,4.3-.46,1.08.91,1.91.68,2.94.57,0,.71-.43.91.23-2,.61-3.87,2.29-3.39,4.3.35,1.45,3,1.82,3.17,3.39,3,.6,7,1.26,7.46,3.62,2.1.14,2.79,3.24,2,4.3.21.24.83.07.68.68-2.19.14-1,3.65-2.26,4.75-.89.26-1.57-.68-1.81.23.41.34,1.27.24,1.58.68-.72.34-.26.81-.23,1.58-1,1.71-1.2,3.29-1.81,5.65-2.19,1.51-2.54,4.85-4.75,6.33-.5,2.74-2.88,3.61-3.62,6.11-6.54,6.34-13.13,12.65-20.58,18.09-4.5,2.36-7.93,4.7-13.11,6.56a6.82,6.82,0,0,1-.91.22c-2.56.4-3.83,1.31-5.88,1.58a175.65,175.65,0,0,1-19.22,1.13c-3.35-1.06-7.7-1.18-11.53-1.81-3.23-.53-5.85-3-9.5-2.71-1.53-1.79-5.35-1.28-6.33-3.62-1.37-1-3.68-1-4.3-2.71-2.74-.42-3.43-2.9-5.88-3.62a1.26,1.26,0,0,0-.23-.91c-1.73-1-2.77-2.66-4.52-3.62-2-2.91-4.77-4.87-6.33-8.37-1.21-2.72-1.74-5.75-3.16-8.59-.11-3-.36-6.68-1.36-9.27.1-2.74-1-5-1.36-8.14A2.63,2.63,0,0,0,19,91.6c-.48-.7-.75-.59-.23-1.36-1.08-.34-.56.18-1.58.23.35-.81-.77-.14-.68-.68.38,0,1.84-.75,1.13-.45H15.85c.49-.47,0-.73-.23-1.13.14.13,1.07.53,1.13,0-1.29-.73-1.59.79-2.71.91-.89-4.31-1.1-11.44,2.26-14.92-1,.21-1-.54-.9-1.36.27,0,.51.4.68,0-.68.23-.4-.5-.45-.9a7.08,7.08,0,0,0,1.58-1.58c-.72-1.53,1.27-3.91,2.71-4.75.48-2.34,2.28-3.41,4.52-3.39.41-.49.22-1.59.9-1.81,1.5,0,1.86,1.15,2.94,1.58,3.4-1.73,3.71-6.54,7.46-7.91,2,.88,2.77-1.06,3.39-2.26-.76-1.87.5-3.32.68-5,2.59-2.53,6.37-3.88,9-6.33,3.45-1.22,5.86-3.49,8.37-5.65,4.46-2,7-5.85,13.11-5.65.18-.57.93-.58,1.36-.9,10.14-1.34,20.62-1.13,28.26,2.49.12-1.39,2-1.29,1.81-.23a1.59,1.59,0,0,1,.45-.68c.32,1,.83.4,1.58.45,2.84.18,6.43,2.61,9.5,2.49,1.57,2.28,5.6,3,7.91,3.84,1.4,1.44,5,3,4.52,4.75a1.27,1.27,0,0,1,1.36,1.36c1.1,0,2.3,1.76,3.62,2.26a11.13,11.13,0,0,0,.68-2c.15,1,2,.3,1.58-.68h-1.58c-.44-1.44-2.12-1.62-2.49-3.17-.1-.43.42-.77.45-1.13.29-3.47-4.74-3.95-3.39-7.69.67.32-.59,1.18.45,1.13.56-1.68-2-1.72-2.49-3.39-.78-2.56.23-4.68,1.36-6.56,3.66,2.15,6.14,5.47,9.72,7.69-2-3.57-5.44-5.72-7.91-8.82,1.13-.28.78-2.43,2-1.36.44-1-1-1.25-.45-1.58a1.92,1.92,0,0,0,1.35.23c-.25-.71-.14-.64.45-.91.44.3-.45,1.2.45,1.36.49-1.07,1.84-.26,1.81-2.49-.81.25-2.84.47-3.62,0a2.32,2.32,0,0,0,1.58-1.13c-.92-.38-1.18,0-1.58-.91.86-.23,1.74,0,2.49-.68a.85.85,0,0,1-.9-.9c-.71-.11-.51.69-1.36.45-.68-1.28.4-3.15-.68-4.75C122.38,6.16,114.19,5.88,107,6.58c-1.75.17-3.5.94-5.2.68-1-.15-2.25-1.3-3.62-1.58C93.9,4.79,88.94,3.52,85.94,5c3.45,1.52,10.17,2.37,14,2.94C97.14,10.39,92.71,11.24,88.2,12c-2.6,1.37-7.26,2.66-10.4,2,.28-1.22,1.84-1.18,2.94-1.58a8.22,8.22,0,0,1,2.71-3.17c-3.67.56-7.24,1.2-9.72,2.94-4.91-.22-10.78.54-12.66-2.71,2.42-1.35,5.87-2.87,9-2.71-.08,1.66-1.43,2-2,3.16.3,1.11,1.43,2.42,2.94,1.58a6.06,6.06,0,0,1,.68-5.65,16.53,16.53,0,0,1,7,0c.9-2.78-1.64-1.82-2.71-1.81-.37,0-1-.43-1.36-.45-.93-.05-2.11.65-3.62.9-1.84.31-4.1.15-5.88.45-1.35.23-2.63,1.1-3.84,1.36-2.25.47-4.38.14-6.1.9C50,.68,36.49-2.31,27.83,2.73c-3,4.07-8,6.18-8.59,12.66-2,3-.31,7.59-.9,11.08-.08.45-.43.71-.45,1.13-.19,3.12,1.79,4.47,3.39,6.33-1.47,4.56-5,7.08-5.65,12.44A47.44,47.44,0,0,1,10,54.51c-.52,3.17-2.66,4.72-3.84,7.23-1.25,5.08-4.29,8.37-5,14A3.92,3.92,0,0,0,.7,79.84C.3,80-.09,80.26,0,81c.54-.09.49.41,1.13.23.37-.74-.05-.86,0-1.81.49-.19.77-.58,1.58-.45,1.74-3.54,2.87-7.68,6.1-9.72,0-1.54,1.66-3.51,3.39-3.17h-.68A2.77,2.77,0,0,1,12,67.86c-.43.1-.57.49-1.13.45,0,1.7-.84,2.5.23,3.62C7.52,77.69,9,87.11,8.84,93.41a70,70,0,0,0,1.58,16.06c-.15.53-1,.33-1.13.9.36.31,1.16.19,1.36.68-.57.61-1.83,1-1.36,2,.93.55,1-.54,2-.45-.23.45-1,.36-.9,1.13.71.11.51-.69,1.36-.45,1.1,2.17-1.38,2.25-2.49,2.94.28,1.09,1.18.83,2.26.68-.09.44-.88.18-.68.9.82.06,1.48-1.21,1.81-.9,0,.14,0,.27.23.23-.07.47-.61-.34-.68.45,1.22-.09,1.09,1.17,2.26,1.13s1.49-1,2.26-.9c.64-1.68-.89-2.38-.68-4.3.84-.29,1.14-1.12,2.49-.9.07.3.32.43.23.9-1,.15-.21,1.52-1.58.91.1,1.36,1.87.38,2-.23,3.07,2.5.69,9,4.75,10.4a15.86,15.86,0,0,1,.68,1.81c-.43.11-1-.7-.9.23.09.77,1.24-.34,1.13.22.09.54-1-.12-.68.68,2.2-.89,1.85,2.32,4.07.9a17.27,17.27,0,0,1,.68,2.71c-.77.56-1.49,0-1.81,1.13-.78-.62-1.35,0-1.81-.91.44-.83,1.27-.62.9-1.81-1.22-.05.19,1.5-1.58,1.13-.6-.87,0-.89-.23-1.58-.34,0-.83.08-.9-.22-.1-1-.72-1.05.23-1.58-2.08.63-2.22-2.39-3.62-3.17-.11-.71,1.12-.08.9-.9-.1-.36-.71-.19-.45-.9-.64,0-.53.68-1.13.68-.25-1.18.06-1.51.23-2.71a3.71,3.71,0,0,0-2.49-.9c.13.63.93.58.9,1.36-1.16.84-2.34-.07-3.62-.23-.05,1.18-1,1.24-1.58,1.36-.71-.33.86-1.17-.23-1.13-1.13.3-3.59,1.23-4.3,2.71.28.62,1.17.64,1.13,1.58-.23,0-.27.18-.45.23-3.07-1.15-2.38-6.06-6.78-5.88.49,5.61,3.9,10,6.78,14a33.37,33.37,0,0,0,6.33,7.24c.32,1.49,1.64,2,2.26,3.17h1.13a5.84,5.84,0,0,0,3.62,4.29c-.19.72.36.7.45,1.13.54-.09.49.41,1.13.23,1.85,2.86,5.18,4.85,8.14,6.33,2.81,1.41,5,3.36,7.91,4.52a34.11,34.11,0,0,0,6.1,1.81c-.07.45.31.45.45.68,4.63.71,9.09,2.47,13.34,2.26,8.76,2.83,18.52.77,26.91,1.81A150.76,150.76,0,0,0,113.52,161a2.7,2.7,0,0,1,2-1.81c.08.6.54.81,1.36.68a1,1,0,0,0,.23-1.36c2.87-1.5,6.6-2.14,9.95-3.17a1.41,1.41,0,0,1,0-1.13c2.23-.1,2.86-1.81,5-2,.14-1.12-.45-1.51-.9-2,1.91-2.08,5.79-2.2,7.91-4.07a.62.62,0,0,0,.68.45c.36-1.28,1.83-1.22,1.13-2.49.34-.34,1.29-.07,1.13-.9.1-.63-1.23.18-1.13-.45.88-.1,1-1,1.13-1.81-.58-.39-.79.26-1.13-.23a1.42,1.42,0,0,1,2,0c2-.14,1.27-1.84,3.62-1.81.19-.61,1.1-2.64-.23-2.71-.46,1.66-2.71,2.72-4.07,2.71.59-1.37,3.08-2,2.49-3.85-1.68.8-2,3-3.84,3.62-.62-.89-1.84-1.18-2.71-1.81-.26,1.76-2.21,1.79-2.26,3.17a1,1,0,0,1-.23-.23c0,1.43-1.76,1.11-1.58,2.71.4.13,1.33-.27,1.36.22-.28,1-1.82,2.11-2.71,1.13-.52.23-.63.88-1.13,1.13-1-.58-.09-1.7.45-2-.42-1.46-1.84-1.92-2.71-2.94,1.26-1.3,1.56-3.57,3.62-4.07,1.3,1,2.66-.83,3.84-1.36-1.77-1.1-2.77-3-4.75-3.84a15.63,15.63,0,0,0,2-4.75c-.56-.29-1.1.5-1.13,0,2.09-1,2.32-3.86,4.52-4.75,1.21-3.22,4.74-5.12,5-8.59,1.19-.31,1.54-1.47,2.94-1.58,3.34,1.64-.11,5.48.45,7.92-1.28.27-.35,1.47-1.36,1.81.33.2.72.34.68.9-.54-.09-.49.41-1.13.22.46,1.2.07,1.32-.68,2,.52,1,1.9-.22,1.36-.45.23,0,.27-.18.45-.23,0,.27,0,.64.23.68.19-.55-.1-.85.68-1.13-.53-.25-.16-1.49.23-1.58s.85.06.9.46c-.7,2.25-2,3.46-2.49,5V126c-.54,1.39-2.4.18-2.94,1.36.27,0,.64,0,.68.23-2.21,1.55-2.33,3.87-3.84,6.11.55.48,1-.54,2-.23-.42,1.45,1.37.94,1.13,1.58.53-.82,1.06-2,2.49-1.58a5.8,5.8,0,0,1,2.49-2.49c.36.17.34.72.9.68.87.2.81-.55,1.36-.68-.23-.77-1.15-1.23-.23-1.36-.63-.91-2.15.08-3.16-.68.09-.77,1.24.34,1.13-.23-.26-.38.82-.83,1.58-.45a23,23,0,0,1,3.39-3.39c.62,0,.46.38.9,0-.54-1.82,1.87-.69,1.81-2-1,.59-1.26-.63-1.81-.45,1.06-.2,1.74-.93,2.94-.68.32-.82.76-1.5,1.13-2.26,1.09-.07,1-.34,2.26-.45,0-2.22,2-3.67,1.13-5.43-.06.21-1,.6-.9.23,0-.58,1-.24.68-1.13-1.35.08-1.37,1.5-2.49,1.81a2.35,2.35,0,0,0-2,.22c-.39-.29-.89-.47-.9-1.13-.71-.11-.51.7-1.36.45a2.17,2.17,0,0,1-.45-2.49c-.5-.1-.72-.49-1.13-.68,1.44.17.34-.73.68-.9,1.32-.32-.18.76.9.68.8-.78,2.22-.95,3.17-1.58-1.1-2,2.45-2.79,1.36-3.39,0-.58.76-.45,1.36-.45-.54-2.45,2-3.31,2.94-3.39-.22-1,.55-1.6,1.36-2C164,96.27,162.26,94.94,162.81,92ZM146.53,78.48a71.27,71.27,0,0,1-8.14-2.94c.16-.18.35-.62,0-.68-.1-.62.84-.21.9-.68-.45.11-1.9-2-.45-2-1-.28-1.45-1.15-.45-2.26.53.29.42,0,1.13.23-.56-.75-1.77-1.13-2.49-2.26.27-.34.19-1,.9-.91.28-.73-.73-.17-.45-.9.26,0,.19-.41.23-.68h1.13c0-1.43-1.31-1.55-1.36-2.94a6.89,6.89,0,0,0,3.39-.45c.82.5.48.83,1.13,1.58a2.43,2.43,0,0,1-1.36,1.81,4.41,4.41,0,0,0,2.26,0,18.2,18.2,0,0,1,.9,3.62c-1.19.38-1.2-1.18-2-.45,0,.82,1.6.05,1.36,1.13,1.9-.57,2.82,3.81,2.26,5A4.59,4.59,0,0,1,146.53,78.48ZM10.19,122.58a2.29,2.29,0,0,0,2.49-.9c.35,1-1,2.09-1.81,2.71C10.76,123.66,10.16,123.44,10.19,122.58Zm17.86,21.26a4.28,4.28,0,0,0-2,2c-2.53-2.52-6.31-3.78-7.69-7.46.94.11,1.24-.42,1.81-.68a3.73,3.73,0,0,0-2,.23c-.51-.25-.4-1.11-.9-1.36.1-.34.29.09.68,0,0-.58-.76-.45-1.36-.45.17-1.33-.4-2.07-2-2.49.77-1.67-2.1-3.09-.68-4.07a6,6,0,0,1-2.26-4.3,3.32,3.32,0,0,0,1.36-1.81c.71-.11.6.61,1.13.68.2-.72-.35-.71-.68-.9.4-.64,1.13-1.58,1.81-.68-.1.33-.29-.09-.68,0-.11,1.08,2.23,1.5,1.13,2.71,1.57,0,1.95,3,2.94,4.3-1.2.38-1.43,2.16-2.94,1.58.1.36.71.19.45.91,1.1.12,1.09-.87,1.81,0,.69-.28-.25-.78,0-1.36,2.66-.33,2.05,2.62,3.62,3.39-.18.79-.64.74,0,1.36.19-1.65,1.53,1,2,1.81a1.06,1.06,0,0,1,.68-.23c-.42-.44-.41-.18-.23-.9.71,0,1.35.16,1.36.9-3.43.68,2.68,3.16.45,4.52C26.36,142.11,28.34,141.85,28.05,143.83Zm5,5.42c-.66.23-1,.46-.68,1.13H31.22c-.11-1.07-1.75-1.42-.68-3.84.37-.06.39.21.68.23s.18-.28.23-.45c.37-.1.37,1.23,0,1.13.24.27.69.16,1.36,0,.16,1.12,1.3,1.27,1.58,2.26C33.65,149.84,33.25,149.64,33,149.26Zm20.35,13.57c-1.18-1-4.09,0-4.3-2.49-1.57-.17-4.4-.82-4.07-3.62.79.19,1,.94,2,.91-.88,1,.63.38,0,1.58.4-.12.94-.12,1.13-.45.48.29,1.56,1.14,1.36,1.36,1-.1,3.75.21,4.52,2C53.85,162.39,53.22,162.22,53.38,162.83Zm71.22-12.21c0-.71.16-1.35.91-1.36C125.3,149.81,125.3,150.56,124.6,150.62Zm1.58-3.84c-1,.32-1.81.67-2.71,0a8.59,8.59,0,0,0,.23-2.49c.79-.4,1-1.07,2-.68,0,1-.64-.11-.9.45.29.71.47.12,1.13.45A5.68,5.68,0,0,1,126.18,146.77Zm-5.88-2.94c.49.79,2.26.3,1.81,2-1,.26-1.4-.21-2.26.23V147c1.13-.33.5,1.92,2.49,1.36.51-.24-.65-.69-.45-1.36.93.13,1.27.84,1.13,2h-1.13c-.09.54.41.49.22,1.13.84.16,1-.38,1.81-.22.11.71-.61.6-.68,1.13-1,.17-.93-.73-1.58-.9,0,.37-.35,2.68.68,2.71a4.77,4.77,0,0,0-1.81,2.26c-3.45,2.51-8.19,2.68-11.53,5-4.88-1.45-7.57,2.7-13.11,2a4.87,4.87,0,0,1-.23-2c-3.66,0-6.35-.1-8.82,1.13a3.85,3.85,0,0,0-4.29.45c-.38-.37-1-.49-1.36-.9-3.08.63-6.13-.95-8.82-1.81-1.36-.43-3-.18-4.3-.68-1.53-.61-5.2-1.67-6.78-2.49,0,0-2-1.84-2.49-1.13-.1.17,0,.5-.9,0-.68.27.83.2.45.9-.8.44-1.31,0-2.26,0a3.42,3.42,0,0,1,0-1.58c-1.84-.36-1.88,2.13-3.39,1.36,0-.55,1.3-.93.45-1.58-.07,0,2.33-1.05,1.81,0,.52-.31,1.26-.4,1.13-1.36-.1-.5-1.11-.09-1.58-.23-6.22-4.86-11.61-10.55-17-16.28-.64,0-.94-.41-1.58-.45a2,2,0,0,0-2.71-1.58c.49-.38,1.32-1.23,1.81-.9-.14-.76-.52-1.29-.68-2,2.88,2.09,6.09,3.86,8.59,6.33a1.46,1.46,0,0,1,1.13-.23c1.11,1.3,3.17,1.66,4.3,2.94,3.37.35,5,3.54,7.91,3.62.62.36,1,1,2,.9.15.83.83,1.12,1.36,1.58.78.18.87-.34,1.58-.23.78,1.63,1.51.39,2.71.68-.13.55-.19,1.16-.91,1.13.12.34.33.57.45.91,1.14.16,1.19-.77,1.81-1.13.94.2,1.27,1,1.58,1.81,2,.27,6.23.21,8.59.9,1.17-.64,3.23-1.23,4.52-.45,1.14-.67,3.56-.06,4.3-1.13,2.75-.59,5.43-.08,8.14-.68.74-.16,1.14-.92,1.81-1.13,1.2-.37,2.86-.15,4.3-.68,4.48-1.65,10.4-3.59,14.47-6.1,2-1.22,4.13-2.06,6.33-3.39.6-.36,1-1.23,1.58-1.58,1-.58,2.24-.6,3.17-1.13,2.14-1.22,3.64-3.36,5.88-4.52C128.25,134.48,123.9,139.25,120.3,143.83Zm21.48-13.57c.39-.74.93-1.33,1.36-2,.59-.07.74.31.68.9C142.84,129.57,142.84,130.38,141.78,130.26Zm1.58.68v-.68c.95,0,1.26.41,2,0C145.08,131.35,143.72,130.14,143.37,130.94Zm1.81-21.48c.14-3.56,2-5.35,3.16-7.91,2,2.31.68,5.19,0,7.69.32.39,1,1.92-.45,1.58,0-.22.28-.18.45-.23C147.86,110,145.67,110.6,145.17,109.46Zm2,17c0-.7.79-1,1.13-.68C148,126,147.79,126.4,147.21,126.42Zm.22-6.56c1.09-.63.62-.73.45-2,.82-.26,1.48-1,2.49-.45C149.85,118.61,149.15,120.53,147.43,119.86Zm-12.66,19a1.76,1.76,0,0,0-1.58,1.13c.28,0,.53.07.45.45,1,0,1.31-.82.68.22,1,.26.24-1.26,1.36-.9C135.41,139.43,135.26,139,134.77,138.86Zm7-96.1c-.05.43.25.5.23.9.43.05.5-.25.9-.23.11-1.09-1-.94-1.58-1.36.13,0,.26-.18,0-.23-.55,1-1.75,1.22-2,1.58C140.49,43.93,140.91,43.16,141.78,42.76Zm-6.33,9.72c-.2.48-.69.67-.68,1.36.81-.54,2.06.45,2.94-.23.34.61,1.09.81.9,1.36.51-.25,1.27-.92,1.81-.45-.05-.43.25-.5.23-.91-.7.3-1.19.94-1.58.45,0-.29.29-.31.22-.68A18.77,18.77,0,0,1,135.45,52.48Zm24,25.1c1,.67.4,1.5-.45,2a6.72,6.72,0,0,1,.68,3.17,2.15,2.15,0,0,1-2-.23,14.19,14.19,0,0,0-.45,2.26c.4.42.58-.18,1.36,0a1.14,1.14,0,0,0,.91,1.58c.23-.45.84-.52,1.13-.9-.22-1.24-1.77,0-2-.91,1.18-.27,1.93-.71,3.39-1.13.14-1.39.48-3-.45-3.85C162.22,78.39,160.85,77.36,159.42,77.58ZM18.56,88c-.52.79-.8-.53-1.58-.23,0,.92.86,1,1.58,1.13C18.7,88.67,18.86,87.56,18.56,88Zm121.87,46.58c-.81.89-1.66-.41-2.49.45.53.71.05,1.25.68,1.58.21-1,.34-.54.45-.23.34-.75.55.47,1.13.23.18-.16.5-1.26,0-1.36,0,.25-.25.35-.45.45,0-.23-.18-.27-.23-.45C140.09,135.28,140.23,134.89,140.43,134.56ZM54.73,145.87c-.4-.21-.37-.83-.9-.9-.56.3.41.68-.23.9,0-.12-.18-.26-.23,0,.42.48,2.8.64,3.16.67C56,146,54.6,145,54.73,145.87Zm1.81.68c.06,0,0,0,0,0Z"/></symbol></defs><title>blobs</title><g id="Layer_2" data-name="Layer 2"><g id="Layer_1-2" data-name="Layer 1"><g class="cls-2"><use width="172.15" height="166.9" transform="translate(-70.19 170.3) rotate(-29.39) scale(3.02 3)" xlink:href="#Grime_Vector_Pack_01"/><path class="cls-3" d="M459.68,58.21c-10.31.48-14.7,7.18-10.87,14C456.88,86.52,475.68,64.36,459.68,58.21ZM164.08,40c-3.71-1.28-7.92,3.94-10.7,6C156,50.53,166.95,45,164.08,40Zm13.51,1.74c-1.22-2.17-3.36-1.1-5-1.87.58-1,1.38-1.95.45-3.37-3.23,1.6-5.89,3.36-7.06,5.54,1.71,1.49.81,1.31,2,3.55C170.55,45.93,175.66,44.84,177.59,41.72Zm4.28-6.3c2.09-2.51,5.36-1.94,5.28-4.53-2.46,2.16-7.33.26-7.13,4A2,2,0,0,1,181.86,35.41Zm-16.3,10c-2.59,1.95-3.34,4.4-4.87,6.64,1.9.38,4.58-2,6.87-3.09C165.92,47.15,167.26,45.8,165.56,45.37ZM291.27,7.31c-.59-1.45-1.4-2.15-2.52-1.7.27.9-.21,1.61.74,2.7Zm3.66,6.51c.7,2.22,2.31,1.25,3.45,2,.48-1.76-1-.87-1.66-3Zm-56.49,88.7c1.76-.84,3.29-1.75,2-3.45C239.14,100,238.19,101.12,238.44,102.52Zm107.2-48.69c-2.5-3.56-6.09-3.2-9.61-3.16C340.28,51.95,340.76,56.35,345.65,53.83Zm15.65,8.33c-2.4-1.56-4.56-3.93-7.5-3.58C356,60.78,358.4,62.38,361.3,62.16Zm5.78,6.09c1.54-.74,1.35-2,1.38-3.11-2.57.25-3.9-3.9-6.83-2.39C363.94,66.37,365.32,65.35,367.07,68.25ZM262.59,135.67l1.79-1c-.71-1.64-1.65-2.42-3.12-1.36Zm88.69-46.83c-2.33,5.84-5.38,2-10.44,5.1a4.8,4.8,0,0,1-.19,2.44c5.24,5.52,8.29-2.93,14.07-5.59,1.55,4,5.7-1.28,7.68,1.13-2.19,3,0,4.56,1.89,7.51,2.65-2.91,3.27,1.41,5.49,0-.36-1.93,1.08-3.36,1-5.23-1.61-1-1.85,1.9-2.71.75.29-1.09-.51-2.47-1.41-3.89-5.5-2.25-10.32-5.46-17.36-5.81C348.76,87,350.61,86.52,351.28,88.84Zm15.9-12.07c1.8,2.51,2.57-.46,4.5-1.75C370.17,75.62,368.91,75.34,367.17,76.77ZM335.81,110c-.8-1,.73-1.82,2-3.45-.49-.65-.85-1.74-1.6-1.44.33,2.06-.7,3-2.9,3.19C334,109.3,334.36,111.62,335.81,110Zm10.44-5.1c-.41-1.7-1.07-4-2.93-3.8.44.78-.73,1.13-.52,1.85,1-.36,1.15,1.07,1,1.78C344.86,103.91,345.42,104.88,346.25,104.92Zm13.36-1.29c.6-2-1.6-1.62-1.07-3.29-1.27.38-2.21-.44-3.64.49,1.59,1.61-.85,2.1-.45,3.37.75-.3,1.17.57,1.59,1.44C358.86,104.16,356.49,101.23,359.61,103.63ZM109.22,271.93c-15.13,13.78,15,33.78,22,14.09C135.12,275.17,120.36,261.78,109.22,271.93Zm295-135c-.13-.54.11-1,.86-1.26-.59-2-1.82-1.81-2.59-3.21-2.1,1.08-3.16,2.45-1.3,4.63C402.65,135.38,403.13,137.23,404.21,137ZM282.31,402.77c2.63,2.79,8.34,3.48,12.13,4.86,8.28,3,14.14,5.07,22.18,4.65,32.34-1.72,51.29-38.77,39.91-65.34-4.57-10.67-19.59-20.58-27.35-23.56-11.17-4.28-31.08-3.44-43.39,5-6,4.07-7,8.2-11.6,12.77-2.51,2.49-5.79,3.8-7.06,5.54-2.52,3.44-4.15,12.3-3.43,17.52.28,2.08,2.07,4.46,2.14,6.58.1,2.89-2.05,6.08-1.42,8.6,2.07,8.21,6.8,12.61,10.85,16.49,1.2,1.14,3.33,1.25,4.38,2.21C280.94,399.23,281.19,401.58,282.31,402.77ZM495.52,235.16c1.31-.51,2.25.29,3.38.43a15.2,15.2,0,0,0-.81-4.22C497,232.58,495.05,233.53,495.52,235.16ZM148.28,445.53c.95,1.26-1.34,1.63-.78,2.78,2.3-.6.82,1.28,2.52,1.7,1.88-1,.65-2.82,3.49-3.53-.59-1.44-1.4-2.14-2.52-1.7-.68,1,.17,2.38-1.38,3.11C149.58,447.43,149.81,444.79,148.28,445.53ZM132,468c0,2.81-1,5.14,0,7C133.5,473.37,134.64,469.07,132,468ZM493.85,283.63c-2.24-3.12-1.41.58-3.89,1.41.21,1.86,3.15,2.67,2.78.78C491.1,286.4,492.36,283.8,493.85,283.63ZM264.36,429.25c.79-.44,1.12.73,1.85.52-1-1,2.51-3.2-.15-3C266.44,427.85,263.91,427.22,264.36,429.25ZM510.79,299.8c-1.75,1.37-2.6,7.72.22,4.55C508.94,304.55,514.42,300,510.79,299.8Zm1.1,10.29a14.64,14.64,0,0,0,3.87-8.41C513.7,304.27,511.5,306.82,511.89,310.09Zm-19.32,17.12c-.94.4-2.07,1.45-2.7.75-.24-.34-.49-.65-.93-.26-.36,1.79,1.09.91.74,2.69C491.25,329.5,493.36,328.76,492.57,327.21ZM253.08,474.56l1,1.77c1.45-.6,2.15-1.4,1.71-2.52C254.89,474.08,254.19,473.61,253.08,474.56Zm56.27-9.88c.83,2.37,2.54,1.63,4.3.69C312.57,463.93,311,464.26,309.36,464.69Zm183-129.56Zm1-165c-6.83,3.65-14.52-2.1-21-5.32.2-1.27,2.08-2.08,1-3.7-.76-.23-2.42,1.41-4.23.82.47,1,1.23,2-.19,2.44-3-.48-6.28-.18-9.2-1,.42-1.72-1.58-4.1-.89-5.74-7.67-1.26-2.61-9.62-4-12.58-.45-.78-1.34,0-1.85-.51,1.55-2.43,4.92-1.27,4.68-4.2-2.09-.16-1.7,1.85-3.3,1.08-.51-3.61-4.05-8.89-4.29-13.17.67,2.19,1.69.24,1.19-.67-2.09-.16-1.7,1.85-3.31,1.08-.93-1.42-.13-2.37.45-3.37.59.52,3.64.91,3.3-1.08-1.94-1.47-2.39.05-4-.1,2.07-.59.23-2.27,2.3-2.86,3.83,1,3.74,3.73,4,7.1,7.13-3.73-.7-6.78.09-11-1.94,1-1.1,2.69-3.5,3.52.61-2.36-2.52-1.48-3.52-3.47.88-2.92-.5-6.47-1.69-10-23.44-20.33-50.11-29.16-76.07-40.55,1.8,5.35,11.36,14.95,12.48,24.93-2.3.92-1.88,3.66-3.69,6-2.93-1.17-2.37,2.8-5.49,0-.17,1.12.65,2.51.47,3.63,4.84-1.81,6.68-1.9,10.11-5.69,4.05,2.73,2.89,8.38,2.43,12.66-1.42.92-2.82,1.73-3.64.49.2-.95,2.09-1.42.78-2.78-2.4,1.33-4.49,2.75-4.35,4.79a4.82,4.82,0,0,1,2.45.17c-.52,1.52.3,3.41-1.31,4.63-2.42-.29-4.1-3.19-6.83-2.39-.43,1.38,1.18,3.33,2.08,5.07-2.05,1.26-1.71,3.19-3.76,4.45-6.25.23-13.78-2.19-16.05-10.44-6.12-.8-6.37,7.25-12.22,6.11-4.73-4.39-8.2-3.84-13.92-3.85,4.17,6,10.09,5.76,13.87,9.33,4.57,4.32,7.43,5.5,11.67,8.23,10.62,6.83,23,10.83,32,17.84,3.9,3.05,6,8,11.68,8.23.38,3.53,5.22,3.66,6.11,6.69,1.45-.91,1.22-2.18,2.71-.75-4.27,4.49-6.81,11.73-2.58,16.27,3,3.27,10.48.38,13.32,4.19,8.65-2.79,20.29-7.08,24.94-1.58,5.72-2.74,12.11,4.33,11.68,8.23.91.32,2.29-1.05,2.78.77-5.56,3.61,2.68,11.06,1.06,15.77-2,2-5.14.54-4.42,3.27,1.58.28,3.68-1.25,5.16-.57-1.4,2,.51,2.51,1.74,4.47-.16,6,1.7,10.38,3.57,17.47-3.52,7.18.47,16.44-3.15,23.6,2.73,7.91-2.25,13.69-.51,21.33-7.85,26.29-15.85,52.53-27.42,77.79-8.35,12.84-13.92,24-24.8,36.57a20.66,20.66,0,0,1-2,1.93c-6.13,4.83-8.13,9.08-13.12,12.85-14.62,11-31.68,21.23-48.84,31.4-10.37,2.2-22,8.32-33,12.34-9.28,3.39-19.76.85-29,7-6.65-2.42-16,4.57-22-.09-5-.52-11.13,2.84-15.29-.74-7.83,3-13.28-2.53-20.78-.76a3.78,3.78,0,0,0-1.93-2c-6,0-11.19-2.86-17.21-2.77-9.49-4.69-19.72-5.67-29-12.52-7.18-5.32-13-12.46-21-17.79-4.76-7.79-10.78-16.95-17.23-22.25-3.77-7.32-9.87-11.61-15.56-19.29a8,8,0,0,0-7.8,2.83c-2.3-1.11-2.86-.44-2.59-3.22-3.34.7-1.21,1.31-3.83,2.94-.26-2.63-2.22.77-2.78-.77,1-.67,3.74-4.68,2.3-2.86l-4.75,2.68c.6-2-1.15-1.87-2.26-2.63.55.14,3.6-.2,3-1.67-4.47,0-3,4.41-5.8,6.38-8.69-10-19.76-28.29-16.05-42.39-2.22,2-3.33,0-4.38-2.21.75-.31,1.94.29,1.79-1-1.45,1.6-1.8-.72-2.52-1.7.69-2.14,1.83-4.16,1.83-6.48-4.14-2.95-2.43-12.11.13-16.44-2.19-6.83,1-12.29,6.89-15.57.36-1.9-1.77-4.48-.29-6.07,4-2.2,6.59.26,10.06-.21,6.39-9.55.12-22.6,7.95-31.75,6.53-.64,5.71-6.87,5.58-10.94-4.76-3.77-3.57-9.44-5.55-14,3.09-10.47,11-19.58,14.44-30,7.26-8.31,10.26-17.79,13.65-27.17,8.76-11.87,9.82-25.69,26.14-34.2-.37-1.76,1.6-2.88,2.23-4.37,24.66-18.52,52.54-33.49,77.95-35.33-1.74-3.82,3.48-6.39,4.42-3.27a4.78,4.78,0,0,1,.19-2.44c2.31,2.11,2.78-.17,4.82-1.16C255,92.25,268,93.29,275.9,88.43c7.48,3.63,19.19-.33,26.46-1.66,5.79,1.69,17.41.37,18.88,5.73,2.82-1.89,5,.49,5.57,1.54,2.83-1.71,8.65,1.2,12.84.56,0-2.63-1-4.79-1.22-6.33,1.9,2.46,5.65-2.14,3.16-4.11l-4.16,2.34c-3.27-3.11-8-1.1-11.2-4.6-.9-1,0-2.65-.48-3.63-4.34-9.51-18.27-3.31-20.24-15.09,2.25-.15.17,4,2.86,2.29-1-5.23-7.73-1.56-11.54-5.19-5.82-5.54-6.3-12.6-6.1-19.16,12.77.21,24.19,5.21,36.88,5.72-10.54-6.35-22.72-6.92-33.79-11.36,2.57-2.4-1.54-7.5,3.35-6.56-.29-3.22-4.43-1.81-3.51-3.47,1.08.29,2.47-.51,3.89-1.41-1.7-1.49-1.32-1.45-.14-3,1.59.12.57,3.8,3.19,2.88-.29-3.52,4.44-3.41,1.09-9.19-1.77,1.85-6.78,5.43-9.51,5.36,1.52-1.57,2.65-3.26,2.5-5.3-3,.36-3.12,1.7-5.5,0,1.91-1.86,4.49-2.69,5.54-5.46a2.55,2.55,0,0,1-3.71-1c-2,.77-.32,2.58-2.9,3.19-3.68-2.33-3.58-8.84-8.78-11.42-18.82,5.27-40.74,16.65-58.72,29.17-4.35,3-7.81,7.63-12.67,9.47-2.85,1.08-7.82-.07-11.84,1.21-12.44,4-27.36,8-33.08,16.3,11.32-1.14,30.2-8.86,41.17-13.06-3.78,10.6-14.17,19.38-24.9,28.05-4.82,7.43-15.17,17.71-24.34,20.72-1.06-3.62,3.1-5.79,5.39-8.49-.71-4.52,1.09-8.36,2.46-12.3C154,78,145.54,84.93,141.59,93.16c-13.22,6.7-27.55,17.36-37.27,11.64,4.39-7.11,11.21-16.2,19.77-20.48,2.24,4.45-.74,7.45-.69,11.29,2.43,2.45,7.32,4.21,10.06-.21-4.8-3.22-7.34-11.17-6.55-15.8a50.09,50.09,0,0,1,18.42-10.37c-1.73-8.62-7-2.33-9.79-.71-1,.57-3.18.31-4.23.83-2.51,1.23-4.59,4.82-8.18,7.72-4.38,3.53-10.55,6.46-14.78,9.89-3.21,2.59-5.29,6.76-8.1,9.24-5.21,4.57-11.3,6.83-14.71,11.4C62.19,98.1,22.31,110.23,7,136.25,5,151.36-4.92,164.25,3,182.1c-.79,10.75,10.37,20.31,14,30.33.46,1.3-.07,2.5.48,3.63,4.1,8.46,11.3,9,18.24,11.55,2.85,14.1-2.65,25.89,3.47,40.9-.3,10.07-.53,20.16-2.86,29.67,3.3,9.07,0,16.3.56,24.62,4.21,15.15,1.06,28.26,7.58,44a11.71,11.71,0,0,0,4.81,11.32c-.74,1.13-1.44,2.26-.12,4,1.3-1,1.9.35,3.3-1.08-.12-2.49-1.41-2.19-2.67-4.73,1-1.22,1.16-2.67,3.49-3.53-.64-11.83-3.76-24.35,1.72-34.48-2.39-4-.81-11.65,4.25-13.3l-1.78,1c2.11,1.63,2,.84,3.85,4.07-1,.89-.77,2.12-2.31,2.85,2.41,4.5,1.48,7.78,5.93,9.13-.92,20.38,16.91,42.81,25.71,59.55a209.28,209.28,0,0,0,27.82,39.66c.37,1.6-2.21,2.38-1.64,4,1.42.28,3.34-1.22,4.56-.23-.6,2.45-3.26,5.44-.56,7.33,3.25.07,1.73-2.83,4.68-4.2.07,1.52-2.1,2.41-.71,4.3,2-.77.32-2.57,2.9-3.19,6.09,4-.31,7.94-2.2,11.37,2.33,2.44,4.31.42,6.94-1.57.4,1.28-2,1.77-.45,3.37,2.24-1.07,2.11-5.37,3.42-5,.24.34.48.65.93.26.52,1.33-2.11,0-1.12,2.19,3.07-2,4.59,1.44,7.61-.39,2.59-2.1,2.5-4.74,4.61-5.71-.8-5.34-5.84-4.9-8.11-10.24,1.79-2,1.36-4.62,5.2-6,.64.69,1.48.65,1.93,2-2.3,1.81,1.69,4.29-2.83,4.72,2.27,3.42,5.48-1.77,5-3.61,11.75,2,15.12,22.59,27.8,20.19,1.45,1.36,3.07,2.12,4.45,3.73-1,.92-3.59-.38-2,1.93,1.38,1.88,2.75-2.73,3.3-1.08,1,1.29-2.89,1.2-.78,2.78,4.47-5.59,8.28,3.34,12-3.66,1.89,2.16,4,3.43,5.78,6.09-1.19,2.62-4,2.11-3.08,5.64-3-.46-3.61,1.87-6.09.31-.07-2.82,2.42-3.5-.29-6.07-3.27,1.66,2.7,3.65-2.49,5.3-2.87-1.4-1.26-2.36-2.93-3.81-.94.4-2.07,1.45-2.71.75-1.79-2.57-3.45-1.69-1.74-4.48-4.54,4.71-9.35-3-14.17-2.93-1.35-1.7,2.83-1.88,1-3.7-.78-.79-2.15.55-2.52-1.7-1.74.85-.38,2.56-2,3.45-2.4-2.73-2.06-4-3.4-7.43-2.27-.83-5,.08-7.87,1.32,1.25,1.46,3.29.14,4.38,2.21-1.82,3.91-6.26,3.28-9.84,4.76,1.6,3.17-.83,4.75-2.16,5.89-2.36.18.53-4.33-2.26-2.62C138.55,470,133.47,476,133.8,481c1.66,1.21,4-.07,5.3,2.47-.6.34-.44.88-.85,1.26-9.76,1.53-15.18-12.35-26.49-5.34,9.55,14,25,20.38,38.48,26.64,8.92,4.14,17.94,8.23,27.3,9.56,3,3.43,7.23,2.74,10.61,4.94l3-1.67c4.55,4.51,9.7,6.94,15.84,5.88.55,2.18,2,1.3,2.85,2.29,1.29-1,1.9.36,3.3-1.08,9.07,4.76,20.75,5,30.72,4.52,9.47-.48,18.14,1.36,27.46.12a103.25,103.25,0,0,0,18.71-4.3c.48,1.26,1.47.72,2.19,1.1,13.22-5,27.53-7,38.39-13.83,27.19-5.56,49.79-25.4,73.38-35.09,22.51-16.24,43.34-35.9,61.46-54.88-.29-2.91.11-5.63,2.68-7.75,1.09,1.45,2.63,1.33,4.57-.23.34-1.84.35-2.5-1.41-3.89,5.34-8.17,14.19-15.37,21.48-23-1.44-1.58-1.06-.91-1.67-3,5.71-3.57,4.86-9,10.07-12.69-1.28-3.14-3.41-3.27-5.38-4,2-8.28,12-14.33,14.8-22.36a1.86,1.86,0,0,0,2.45.18c-.92-3.87,3-5.91-.69-8.18.38-1.39,3.28-2.09,1.64-4-.66-1.79-3,2.29-3.64.49,2.16-1.56,1-4,.31-6.41-2.09-.16-1.7,1.85-3.31,1.08.28-2.5,3.27-3.43,5.35-3,4.93-3.25.63-6.71,6.84-10.09-.39-1.89-1-8.54-4.59-6.76,1.24,5-3.11,11.12-6.7,13.12-.47-4.46,5.09-9.9.87-13.74-3.24,4.6-.68,10.8-4.77,15.16-2.94-1.41-6.57-.37-9.8-.72,1.91,5-3.15,8-1.28,11.63a3.07,3.07,0,0,1-.93-.26c2.1,3.74-3,5.5-.16,9.45,1.23-.25,3.09-2.68,3.9-1.42.74,3-1.69,8.22-5.46,7-1,1.38-.36,3.23-1.31,4.63-3.61,0-2.76-4.31-1.81-6-3.26-3.2-7.68-2.3-11.46-3.67,1.38-5.27-1.16-11.64,3.51-16,4.85.61,5.77-6.09,8.1-9.24-6.26-.25-11.64-3.65-18.14-3,.68-4.8-.54-10.14-1.65-15.44-1.91.06-2.15,2.94-3,1.67,4-5.7.39-13.54,4.89-19.12-1.57-10.22,4.92-20.42.41-29.84,2.67-2.59,1.88-6.13,5.4-8.49,11.19-.66,7.78,14.5,12.85,20-3,2.6,1.24,4.36-.9,6.74,1.16,0,2.38-.18,3.12,1.36-1.57.56-.69,1.81-2.64,2.26,3,2.46,2.13,3.33,1.22,6.33,2.8,1.79,4.66-3.39,2.89-3.19.6-.34.44-.88.85-1.26.48.64.84,1.74,1.6,1.44-.31-1.71-1.52-2.06.11-4-1.76.12-2.61-3.67-1.74-4.48,1.26-.93,2.31-1.11,3-.15,1.48,6.94-.26,12.06.79,16.69l-1-1.78c.64,4.45-6,4-5.72,7.9.75-.3,1.63-1.05,2.11-.41-3.5,7.33-.42,13.58-1.11,21.66,2.15.44,1.74-2.84,5-3.61,1,4.42,5,.43,5.3,2.46.18-2.94-.22-6.9,4.2-7.82,0-4.25.66-6,2.87-10.19,1.19-.08,1.95,1.37,3.38.43,2.59-.78,1.3-2.64,2.57-3.78-1.74-1.66-4.83-1.53-2.6-3.22-3-1.46-5.53,3.4-9.32,2.91-.89-2.16,3.76-.94,2.64-2.27-1.25-.6.93-3.39,3.5-3.52.32-4.72,3.05-10.93,3.91-13.89,1.59-1,1.75.31,2.38-1.34-4.09-4,3.89-4.58,1.75-8-1.67,3-4.23.22-5.42,1.5,2.49-2.09,3.2-5,6.73-6.13-.37-2.6-.21-5.05-.36-7.59,2.76-1.8,2.05-2.33,5.27-4.53-3.29-5.79,0-12.62-5-15.88.14.63-1.75,3.05-2,1.93-.81-1.56,2.19-2.05.11-4-3.44,2.21-1.38,5.95-3.87,8.42-2.14.35-3.45,1.35-5,3.6-1.45-.19-3,.09-4-1.62-2,.77-.32,2.58-2.9,3.19a6.5,6.5,0,0,1-4.86-5.84c-1.47.5-2.61-.2-4-.1,4-1.7-.19-2.42.45-3.37,3-2.8.65,2.27,3.38.43,1-3.22,4.43-5.76,6-8.83-5.81-3.57,2.32-10.93-1.44-10.89-.79-1.55,1.33-2.29,2.89-3.19-5-5.6.45-11.66,2.73-13.22-2-2.16-.91-5,.56-7.33C502.64,179.45,496.17,178.51,493.34,170.14Zm-62.77-11.4c-8.66,1.73-17.39,3.75-25.73,4.36.15-.71,0-2.14-1-1.77-1.18-1.49,1.9-1.8,1.38-3.11-1,.95-8-2.51-4.18-4.66-3,.74-5.5-.85-4.53-5.25,1.83,0,1.06-.7,3.31-1.08-2.58-1.13-6.31-.35-9.86-2.23.2-1.28-1-2.93,1-3.7-.34-2.33-2.18.63-2.52-1.7.64-.49-.1-1.36-.4-2.11l3-1.67c-2.11-3.74-5.74-2.11-7.9-5.68,3.45-1.87,6.87-3.76,8.25-6.21,2.89.09,2.49,1.45,5.3,2.47a7.29,7.29,0,0,1-.9,6.74,13.37,13.37,0,0,0,5.94-3.35,54.46,54.46,0,0,1,7.71,8.13c-2.57,2.74-4.88-1.32-6,1.83,1.23,2.13,4.29-2.24,5.23.95,4.15-4.31,13,5.8,13.27,9.67C425.08,151.33,429.83,155,430.57,158.74ZM137.22,475.92c3.27-.83,4.41-2.93,5.2-6,2.42,2.16.4,7-.76,9.77C140.32,477.92,138.4,478.22,137.22,475.92Zm78.27,29.17c-1.4,2.61-2.88,5.19-2.35,8.33-10.36-2.85-22.17-.55-31.2-8.14,2.62-1.11,2.65-2.93,3.75-4.46a11.29,11.29,0,0,0-5,3.61c-1.7.1-2.68-2.32-4.38-2.21-.23-1,.89-.19,1.78-1-.92-1.47-2.65,0-4.23.83-1.5-3.73-4.1-4.81-9-3.5-.43-5.52-10.07-5-7.78-9.65-4.85-.34-9.85-4.19-12.27-7.9a10,10,0,0,0,.9-6.74c1.71-1.33,2.46.71,4,.1-.55-2.19-2-1.33-3.12-1.36.1-2.26.65-5.81,3.76-4.45.23,1-.89.19-1.78,1,1.3,3,8.07.64,7,5.42,4.16-2.28,9.49,4.89,14.06,6.89-2.59,2.79-.57,7.76-5.39,8.49.78.79,2.15-.55,2.53,1.7,3.05-1.32,1.58-3.9,4.75-2.68,1.39-1.75-1.79-1.67-2-3.55,6.52-4.8,9.25,3.82,14.5,3.52.7,2.34-.57,2.89,2,3.55-1.93-4.59,5.52.41,8,1.72a3.2,3.2,0,0,1,1.45-1.6c-1.75-.52-1.35.14-1.93-2,1.94-1,3.78-1.58,4.9.36-8,6.84,11.7,4.32,7.85,11.17C208.49,503.09,213.32,499.49,215.49,505.09Zm21.07,6.83c-1.4,1.58-1.9,2.65-.12,4l-3,1.67c-1.87-2.62-6.68-1.14-7.45-9.05.87-.71,1.34,0,2.12-.41.56-.34.05-1-.08-1.52.82-.82,2.79,2.68,1.67,3,1,.35,2-.6,3.57-2,2.07,2.7,5.27,1.39,7.49,3.57C239.06,512.52,237.7,512.61,236.56,511.92ZM310,517.3c-4.62-.92-10.83,5.93-15-.14-4.36,1.88-12.77,4.36-16-3.45,2.36-.68,4.07.93,6.68-.64-.9,3.8,2.23.06,2.33,4.13.88-.92,2.3-1.69,2.31-2.85,1.68.05,5.78.66,5.57,1.54,2.54-1.77,10.16-5,14.88-1.37C310.62,515.47,308.72,515.94,310,517.3ZM479.22,379.93c-.95-1.92-1.57-3.77.38-4.89C479.89,376.79,481,378.76,479.22,379.93Zm-1.5-12.4c-2.11,2.28-3.76,4.42-7.13,4-.88-2.25-1.28-4.35-3.07-6.84,1.5-2.22,1-4.24,4.35-4.78,1.57,2.56-1.84.66-1.71,2.52,1.81,1.42,1.4-.38,3.64-.49A17,17,0,0,1,477.71,367.53Zm-19.78,1c2.45,1.35,6.38-2.55,7.75,2.64-2.34,2.21-4,1.52-5.61,3.94l1.34,2.37c2.48-2.53,4.15,4.27,8.54-.14,1-1.39-2.72-.83-3.19-2.88,2.63-1,4.57.33,6,3.65l-3,1.67c.56,1.56,1.81.68,2.26,2.63,2.44-.82,2-2.45,4.42-3.27,1.33,1.7-.72,2.46-.12,4-2.37,1.92-3.51-.54-5.5,0,.48,1,3,7.52,5.79,6.1-.91,2.75-2.26,5.37-1.42,8.59-5.37,11.68-17.58,19.13-23,30.09-15,3.43-15.91,18.26-31.47,24.74a14.57,14.57,0,0,1-3.59-5c-9.66,5.33-16.84,9.12-21.51,16-4.45-.38-9.83,4-10.62,7.54-1.55-.41-3.39.22-4.9-.36-7.16,6.21-17.52,6.6-25.84,8.32-4.2.87-8.24,4-12.29,4.58-4.91.68-16.13,3.33-21.49,3.54,0,0-8.08-1.79-8.2.72,0,.59.71,1.33-2.38,1.34-1.38,1.7,2.46-.71,2.52,1.7-1.46,2.33-3.44,1.92-5.94,3.35a10.21,10.21,0,0,1-2.33-4.14c-5.36,1.79-1.79,8.35-6.91,8.57-.81-1.43,2.05-4.37-1.14-4.81-.14.19,4.58-6.2,4.75-2.68.92-1.58,2.73-2.9,1-5.22-1-1.17-3.07,1.41-4.49,1.75-23.51-3.51-46.06-10.41-68.56-17.49-1.74.85-3.09.31-4.82,1.16-2.6-2.81-6.51-3.64-9.46-.13.73-1.73,1.67-5.17,3.42-5-1.49-1.79-3.27-2.6-4.78-4.32,10.65,1.21,21.69,1.07,31.91,3.85a4.43,4.43,0,0,1,2.64-2.27c4.83,1.78,10.76-.35,15.62,1.33,9.38-4.08,18.41,1.82,26.13-2.24,2.16,0,4,1.15,6.68-.65,1.61,1.95,3.85,1.71,5.9,2.13,2.33-.68,1.79-2.16,3.83-2.94,4.45,3.09,4.55-1.21,8.13-2.24.47,1.63,1.2,3.33-.72,4.29.81.7,1.72,1,2.52,1.7,3.24-1.27,2-3.78,3.09-5.64,2.75-.87,4.79.73,6.83,2.39,5.77-2.32,16.68-8.66,23.91-10.35,2.14-3.4,6.68-8,11.22-7.87,2-3.43,9.26-5.42,9.63-9.32,6.36-5.61,14.16-8.24,20.39-13.83,1.7-1.52,1.64-4.11,3.09-5.63,2.61-2.75,7.3-4.62,10.29-8.14,9.35-11,22.05-24.79,29-37.39,3.39-6.13,7.83-11.51,11.64-18.25,1-1.84.77-4.68,1.83-6.49,1.75-3,5-4.89,6.66-7.64,3.83-6.37,4.62-14.17,8.78-20.54C465,332.3,460.64,351.23,457.93,368.55Zm36.46-67.3c-.07-2.52.49-4.86.57-7.33,1.46-1.06,2.41-.28,3.11,1.36C496.14,297.85,497.35,300,494.39,301.25Zm5.16-.57-1-1.78c2.45-1.48,3.92-.79,5.35-3C504.65,299.2,499.29,298,499.55,300.68ZM472.65,241.8c-4.88-9.51-2.54-17-3.34-25.39,8.71,3.07,9.43,12.57,11.33,20.11,1.42.55,5.58,3.47,1.15,4.81-.31-.59.46-.87.85-1.26C480.51,239.25,475.65,244,472.65,241.8ZM503,283.16c-1.13-1.77.59-3.84,2-3.45C504.45,280.91,504.47,282.24,503,283.16Zm-9.07-17.49c1.95-3.26.55-2.82-1.81-6,1.78-1.89,2.39-4.87,5.87-4.86C498.43,258.82,499.41,264.89,493.91,265.67Zm-5.29,68.44a5.29,5.29,0,0,0-2.49,5.3c.76-.34,1.5-.62,1.86.51,2.69-1.62,2.23-4.08,2.11-.41,3.07-.82-1.22-3.66,2.23-4.38C491.14,334.66,490.07,333.7,488.63,334.11ZM365.44,72.29c.5,1.19,1.4.93,1.93,2,1.19-.5.93-1.4,2-1.93-1.32-3-4.06-1-6.16-1.2.33-.19.41-.86-.34-.6.07,3.47-2.8,5.79-3,7.15C363.77,77.27,363.75,74.64,365.44,72.29Zm-2.31,34.81c.17,1.55-.82,2.76.21,4.55,1.32-2.61,6.08-1.87,7.39-4.95,1.8,1.08,4.05.52,4.37,2.21,1-1.4,2-4.3,4.09-3.86-.77-1-.07-1.68-.74-2.7-1.38,1.82-1.74,4.21-3.49,3.53-.4-.78.3-1.25-.41-2.11C370,106,367.9,105.68,363.13,107.1Zm100,30.19c3.68.23,3.27,3.33,1.81,6,2.25,2.09,4.72,3.39,6.45,7.28-1.38,2.06-3.55,2.3-5.68,2.42.41,3.21,1.48,3.84,2.14,6.59,1.68.51,1.24-1.33,3.56-2,.21,2.23,2.34,3.5,4.71,2.8-.06-1.51,1.45-2.59,1.64-4-2.41-2.9-4.66,2.58-6.69.65,2.71-2.45,4-4.71,7.25-8-1.68-3.84-3.21-8.62-6.86-9.39C471.65,135.27,466.54,134.61,463.1,137.3ZM108.23,373c-.19,2.83-2.89-.21-4.49,1.75,1.31,2.43,3.66,1.23,5.82.61C109.62,374.6,108.39,371.48,108.23,373ZM497.15,314.5c-.81,3.52-5,1.37-5.87,4.86,2.44,1.07,2,3.19,4.12,3.14-.85-2.82.1-1.9.85-1.26-.21-2.45,2.15.41,3.31-1.08.23-.67-.54-4-2-3.55a2,2,0,0,1-.53,1.85c-.33-.59-.88-.43-1.26-.85C497.32,316.87,497.13,315.66,497.15,314.5ZM288.6,470.92c-1.35.05-2.21-1.62-3.71-1-1,1.61,2.08,1.18.74,2.7-.18-.33-.86-.4-.6.34,1.81.65,8.3-2.46,9.29-2.92C292.27,469.35,287,468.92,288.6,470.92Zm5.75-.9c.16-.09.13-.08,0,0Z"/></g></g></g></svg>